G75*
%MOIN*%
%OFA0B0*%
%FSLAX25Y25*%
%IPPOS*%
%LPD*%
%AMOC8*
5,1,8,0,0,1.08239X$1,22.5*
%
%ADD10C,0.13800*%
%ADD11C,0.03300*%
%ADD12R,0.04737X0.05131*%
%ADD13R,0.08674X0.05524*%
%ADD14R,0.06115X0.03162*%
%ADD15C,0.08200*%
%ADD16R,0.05131X0.04737*%
%ADD17C,0.01421*%
%ADD18R,0.05524X0.03162*%
%ADD19C,0.03950*%
%ADD20R,0.04343X0.03950*%
%ADD21C,0.04737*%
%ADD22C,0.05000*%
%ADD23C,0.06706*%
D10*
X0044481Y0138750D03*
X0124481Y0138750D03*
X0146481Y0138750D03*
X0226481Y0138750D03*
X0248481Y0138750D03*
X0328481Y0138750D03*
X0328481Y0260750D03*
X0248481Y0260750D03*
X0226481Y0260750D03*
X0146481Y0260750D03*
X0124481Y0260750D03*
X0044481Y0260750D03*
X0044481Y0382750D03*
X0124481Y0382750D03*
X0146481Y0382750D03*
X0226481Y0382750D03*
X0248481Y0382750D03*
X0328481Y0382750D03*
D11*
X0241481Y0389750D03*
X0139481Y0389750D03*
X0037481Y0389750D03*
X0130981Y0276250D03*
X0139481Y0267750D03*
X0232981Y0276250D03*
X0241481Y0267750D03*
X0334981Y0276250D03*
X0334981Y0154250D03*
X0241481Y0145750D03*
X0232981Y0154250D03*
X0139481Y0145750D03*
X0130981Y0154250D03*
X0037481Y0145750D03*
X0130981Y0032250D03*
X0232981Y0032250D03*
X0334981Y0032250D03*
X0037481Y0267750D03*
D12*
X0061981Y0235596D03*
X0061981Y0228904D03*
X0061981Y0193096D03*
X0068481Y0193096D03*
X0068481Y0186404D03*
X0061981Y0186404D03*
X0100481Y0183404D03*
X0106481Y0183404D03*
X0106481Y0190096D03*
X0100481Y0190096D03*
X0163981Y0193096D03*
X0170481Y0193096D03*
X0170481Y0186404D03*
X0163981Y0186404D03*
X0202481Y0183404D03*
X0208481Y0183404D03*
X0208481Y0190096D03*
X0202481Y0190096D03*
X0163981Y0228904D03*
X0163981Y0235596D03*
X0163981Y0308404D03*
X0170481Y0308404D03*
X0170481Y0315096D03*
X0163981Y0315096D03*
X0163981Y0350904D03*
X0163981Y0357596D03*
X0202481Y0312096D03*
X0202481Y0305404D03*
X0208481Y0305404D03*
X0208481Y0312096D03*
X0265981Y0315096D03*
X0272481Y0315096D03*
X0272481Y0308404D03*
X0265981Y0308404D03*
X0304481Y0305404D03*
X0304481Y0312096D03*
X0310481Y0312096D03*
X0310481Y0305404D03*
X0265981Y0350904D03*
X0265981Y0357596D03*
X0265981Y0235596D03*
X0265981Y0228904D03*
X0265981Y0193096D03*
X0272481Y0193096D03*
X0272481Y0186404D03*
X0265981Y0186404D03*
X0304481Y0183404D03*
X0310481Y0183404D03*
X0310481Y0190096D03*
X0304481Y0190096D03*
X0265981Y0113596D03*
X0265981Y0106904D03*
X0265981Y0071096D03*
X0272481Y0071096D03*
X0272481Y0064404D03*
X0265981Y0064404D03*
X0304481Y0061404D03*
X0304481Y0068096D03*
X0310481Y0068096D03*
X0310481Y0061404D03*
X0208481Y0061404D03*
X0208481Y0068096D03*
X0202481Y0068096D03*
X0202481Y0061404D03*
X0170481Y0064404D03*
X0163981Y0064404D03*
X0163981Y0071096D03*
X0170481Y0071096D03*
X0163981Y0106904D03*
X0163981Y0113596D03*
X0106481Y0068096D03*
X0106481Y0061404D03*
X0100481Y0061404D03*
X0100481Y0068096D03*
X0068481Y0071096D03*
X0061981Y0071096D03*
X0061981Y0064404D03*
X0068481Y0064404D03*
X0061981Y0106904D03*
X0061981Y0113596D03*
X0061981Y0308404D03*
X0068481Y0308404D03*
X0068481Y0315096D03*
X0061981Y0315096D03*
X0061981Y0350904D03*
X0061981Y0357596D03*
X0100481Y0312096D03*
X0100481Y0305404D03*
X0106481Y0305404D03*
X0106481Y0312096D03*
D13*
X0128950Y0316726D03*
X0142013Y0316726D03*
X0142013Y0338774D03*
X0128950Y0338774D03*
X0040013Y0338774D03*
X0040013Y0316726D03*
X0040013Y0216774D03*
X0040013Y0194726D03*
X0128950Y0194726D03*
X0142013Y0194726D03*
X0142013Y0216774D03*
X0128950Y0216774D03*
X0230950Y0216774D03*
X0244013Y0216774D03*
X0244013Y0194726D03*
X0230950Y0194726D03*
X0230950Y0094774D03*
X0244013Y0094774D03*
X0244013Y0072726D03*
X0230950Y0072726D03*
X0142013Y0072726D03*
X0128950Y0072726D03*
X0128950Y0094774D03*
X0142013Y0094774D03*
X0040013Y0094774D03*
X0040013Y0072726D03*
X0230950Y0316726D03*
X0244013Y0316726D03*
X0244013Y0338774D03*
X0230950Y0338774D03*
X0332950Y0338774D03*
X0332950Y0316726D03*
X0332950Y0216774D03*
X0332950Y0194726D03*
X0332950Y0094774D03*
X0332950Y0072726D03*
D14*
X0318481Y0077844D03*
X0318481Y0081781D03*
X0318481Y0085719D03*
X0318481Y0089656D03*
X0258481Y0089656D03*
X0258481Y0085719D03*
X0258481Y0081781D03*
X0258481Y0077844D03*
X0216481Y0077844D03*
X0216481Y0081781D03*
X0216481Y0085719D03*
X0216481Y0089656D03*
X0156481Y0089656D03*
X0156481Y0085719D03*
X0156481Y0081781D03*
X0156481Y0077844D03*
X0114481Y0077844D03*
X0114481Y0081781D03*
X0114481Y0085719D03*
X0114481Y0089656D03*
X0054481Y0089656D03*
X0054481Y0085719D03*
X0054481Y0081781D03*
X0054481Y0077844D03*
X0054481Y0199844D03*
X0054481Y0203781D03*
X0054481Y0207719D03*
X0054481Y0211656D03*
X0114481Y0211656D03*
X0114481Y0207719D03*
X0114481Y0203781D03*
X0114481Y0199844D03*
X0156481Y0199844D03*
X0156481Y0203781D03*
X0156481Y0207719D03*
X0156481Y0211656D03*
X0216481Y0211656D03*
X0216481Y0207719D03*
X0216481Y0203781D03*
X0216481Y0199844D03*
X0258481Y0199844D03*
X0258481Y0203781D03*
X0258481Y0207719D03*
X0258481Y0211656D03*
X0318481Y0211656D03*
X0318481Y0207719D03*
X0318481Y0203781D03*
X0318481Y0199844D03*
X0318481Y0321844D03*
X0318481Y0325781D03*
X0318481Y0329719D03*
X0318481Y0333656D03*
X0258481Y0333656D03*
X0258481Y0329719D03*
X0258481Y0325781D03*
X0258481Y0321844D03*
X0216481Y0321844D03*
X0216481Y0325781D03*
X0216481Y0329719D03*
X0216481Y0333656D03*
X0156481Y0333656D03*
X0156481Y0329719D03*
X0156481Y0325781D03*
X0156481Y0321844D03*
X0114481Y0321844D03*
X0114481Y0325781D03*
X0114481Y0329719D03*
X0114481Y0333656D03*
X0054481Y0333656D03*
X0054481Y0329719D03*
X0054481Y0325781D03*
X0054481Y0321844D03*
D15*
X0049481Y0033750D03*
X0059481Y0033750D03*
X0069481Y0033750D03*
X0079481Y0033750D03*
X0089481Y0033750D03*
X0099481Y0033750D03*
X0109481Y0033750D03*
X0119481Y0033750D03*
X0151481Y0033750D03*
X0161481Y0033750D03*
X0171481Y0033750D03*
X0181481Y0033750D03*
X0191481Y0033750D03*
X0201481Y0033750D03*
X0211481Y0033750D03*
X0221481Y0033750D03*
X0253481Y0033750D03*
X0263481Y0033750D03*
X0273481Y0033750D03*
X0283481Y0033750D03*
X0293481Y0033750D03*
X0303481Y0033750D03*
X0313481Y0033750D03*
X0323481Y0033750D03*
X0323481Y0155750D03*
X0313481Y0155750D03*
X0303481Y0155750D03*
X0293481Y0155750D03*
X0283481Y0155750D03*
X0273481Y0155750D03*
X0263481Y0155750D03*
X0253481Y0155750D03*
X0221481Y0155750D03*
X0211481Y0155750D03*
X0201481Y0155750D03*
X0191481Y0155750D03*
X0181481Y0155750D03*
X0171481Y0155750D03*
X0161481Y0155750D03*
X0151481Y0155750D03*
X0119481Y0155750D03*
X0109481Y0155750D03*
X0099481Y0155750D03*
X0089481Y0155750D03*
X0079481Y0155750D03*
X0069481Y0155750D03*
X0059481Y0155750D03*
X0049481Y0155750D03*
X0049481Y0277750D03*
X0059481Y0277750D03*
X0069481Y0277750D03*
X0079481Y0277750D03*
X0089481Y0277750D03*
X0099481Y0277750D03*
X0109481Y0277750D03*
X0119481Y0277750D03*
X0151481Y0277750D03*
X0161481Y0277750D03*
X0171481Y0277750D03*
X0181481Y0277750D03*
X0191481Y0277750D03*
X0201481Y0277750D03*
X0211481Y0277750D03*
X0221481Y0277750D03*
X0253481Y0277750D03*
X0263481Y0277750D03*
X0273481Y0277750D03*
X0283481Y0277750D03*
X0293481Y0277750D03*
X0303481Y0277750D03*
X0313481Y0277750D03*
X0323481Y0277750D03*
D16*
X0311828Y0245750D03*
X0305135Y0245750D03*
X0271328Y0249250D03*
X0264635Y0249250D03*
X0252328Y0226750D03*
X0245635Y0226750D03*
X0209828Y0245750D03*
X0203135Y0245750D03*
X0169328Y0249250D03*
X0162635Y0249250D03*
X0150328Y0226750D03*
X0143635Y0226750D03*
X0107828Y0245750D03*
X0101135Y0245750D03*
X0067328Y0249250D03*
X0060635Y0249250D03*
X0048328Y0226750D03*
X0041635Y0226750D03*
X0060635Y0127250D03*
X0067328Y0127250D03*
X0048328Y0104750D03*
X0041635Y0104750D03*
X0101135Y0123750D03*
X0107828Y0123750D03*
X0143635Y0104750D03*
X0150328Y0104750D03*
X0162635Y0127250D03*
X0169328Y0127250D03*
X0203135Y0123750D03*
X0209828Y0123750D03*
X0245635Y0104750D03*
X0252328Y0104750D03*
X0264635Y0127250D03*
X0271328Y0127250D03*
X0305135Y0123750D03*
X0311828Y0123750D03*
X0252328Y0348750D03*
X0245635Y0348750D03*
X0264635Y0371250D03*
X0271328Y0371250D03*
X0305135Y0367750D03*
X0311828Y0367750D03*
X0209828Y0367750D03*
X0203135Y0367750D03*
X0169328Y0371250D03*
X0162635Y0371250D03*
X0150328Y0348750D03*
X0143635Y0348750D03*
X0107828Y0367750D03*
X0101135Y0367750D03*
X0067328Y0371250D03*
X0060635Y0371250D03*
X0048328Y0348750D03*
X0041635Y0348750D03*
D17*
X0039870Y0352592D02*
X0039870Y0355908D01*
X0043186Y0355908D01*
X0043186Y0352592D01*
X0039870Y0352592D01*
X0039870Y0354012D02*
X0043186Y0354012D01*
X0043186Y0355432D02*
X0039870Y0355432D01*
X0046776Y0355908D02*
X0046776Y0352592D01*
X0046776Y0355908D02*
X0050092Y0355908D01*
X0050092Y0352592D01*
X0046776Y0352592D01*
X0046776Y0354012D02*
X0050092Y0354012D01*
X0050092Y0355432D02*
X0046776Y0355432D01*
X0141870Y0355908D02*
X0141870Y0352592D01*
X0141870Y0355908D02*
X0145186Y0355908D01*
X0145186Y0352592D01*
X0141870Y0352592D01*
X0141870Y0354012D02*
X0145186Y0354012D01*
X0145186Y0355432D02*
X0141870Y0355432D01*
X0148776Y0355908D02*
X0148776Y0352592D01*
X0148776Y0355908D02*
X0152092Y0355908D01*
X0152092Y0352592D01*
X0148776Y0352592D01*
X0148776Y0354012D02*
X0152092Y0354012D01*
X0152092Y0355432D02*
X0148776Y0355432D01*
X0243870Y0355908D02*
X0243870Y0352592D01*
X0243870Y0355908D02*
X0247186Y0355908D01*
X0247186Y0352592D01*
X0243870Y0352592D01*
X0243870Y0354012D02*
X0247186Y0354012D01*
X0247186Y0355432D02*
X0243870Y0355432D01*
X0250776Y0355908D02*
X0250776Y0352592D01*
X0250776Y0355908D02*
X0254092Y0355908D01*
X0254092Y0352592D01*
X0250776Y0352592D01*
X0250776Y0354012D02*
X0254092Y0354012D01*
X0254092Y0355432D02*
X0250776Y0355432D01*
X0250776Y0233908D02*
X0250776Y0230592D01*
X0250776Y0233908D02*
X0254092Y0233908D01*
X0254092Y0230592D01*
X0250776Y0230592D01*
X0250776Y0232012D02*
X0254092Y0232012D01*
X0254092Y0233432D02*
X0250776Y0233432D01*
X0243870Y0233908D02*
X0243870Y0230592D01*
X0243870Y0233908D02*
X0247186Y0233908D01*
X0247186Y0230592D01*
X0243870Y0230592D01*
X0243870Y0232012D02*
X0247186Y0232012D01*
X0247186Y0233432D02*
X0243870Y0233432D01*
X0148776Y0233908D02*
X0148776Y0230592D01*
X0148776Y0233908D02*
X0152092Y0233908D01*
X0152092Y0230592D01*
X0148776Y0230592D01*
X0148776Y0232012D02*
X0152092Y0232012D01*
X0152092Y0233432D02*
X0148776Y0233432D01*
X0141870Y0233908D02*
X0141870Y0230592D01*
X0141870Y0233908D02*
X0145186Y0233908D01*
X0145186Y0230592D01*
X0141870Y0230592D01*
X0141870Y0232012D02*
X0145186Y0232012D01*
X0145186Y0233432D02*
X0141870Y0233432D01*
X0046776Y0233908D02*
X0046776Y0230592D01*
X0046776Y0233908D02*
X0050092Y0233908D01*
X0050092Y0230592D01*
X0046776Y0230592D01*
X0046776Y0232012D02*
X0050092Y0232012D01*
X0050092Y0233432D02*
X0046776Y0233432D01*
X0039870Y0233908D02*
X0039870Y0230592D01*
X0039870Y0233908D02*
X0043186Y0233908D01*
X0043186Y0230592D01*
X0039870Y0230592D01*
X0039870Y0232012D02*
X0043186Y0232012D01*
X0043186Y0233432D02*
X0039870Y0233432D01*
X0039870Y0111908D02*
X0039870Y0108592D01*
X0039870Y0111908D02*
X0043186Y0111908D01*
X0043186Y0108592D01*
X0039870Y0108592D01*
X0039870Y0110012D02*
X0043186Y0110012D01*
X0043186Y0111432D02*
X0039870Y0111432D01*
X0046776Y0111908D02*
X0046776Y0108592D01*
X0046776Y0111908D02*
X0050092Y0111908D01*
X0050092Y0108592D01*
X0046776Y0108592D01*
X0046776Y0110012D02*
X0050092Y0110012D01*
X0050092Y0111432D02*
X0046776Y0111432D01*
X0141870Y0111908D02*
X0141870Y0108592D01*
X0141870Y0111908D02*
X0145186Y0111908D01*
X0145186Y0108592D01*
X0141870Y0108592D01*
X0141870Y0110012D02*
X0145186Y0110012D01*
X0145186Y0111432D02*
X0141870Y0111432D01*
X0148776Y0111908D02*
X0148776Y0108592D01*
X0148776Y0111908D02*
X0152092Y0111908D01*
X0152092Y0108592D01*
X0148776Y0108592D01*
X0148776Y0110012D02*
X0152092Y0110012D01*
X0152092Y0111432D02*
X0148776Y0111432D01*
X0243870Y0111908D02*
X0243870Y0108592D01*
X0243870Y0111908D02*
X0247186Y0111908D01*
X0247186Y0108592D01*
X0243870Y0108592D01*
X0243870Y0110012D02*
X0247186Y0110012D01*
X0247186Y0111432D02*
X0243870Y0111432D01*
X0250776Y0111908D02*
X0250776Y0108592D01*
X0250776Y0111908D02*
X0254092Y0111908D01*
X0254092Y0108592D01*
X0250776Y0108592D01*
X0250776Y0110012D02*
X0254092Y0110012D01*
X0254092Y0111432D02*
X0250776Y0111432D01*
D18*
X0277458Y0106250D03*
X0277458Y0101250D03*
X0277458Y0096250D03*
X0277458Y0091250D03*
X0277458Y0086250D03*
X0277458Y0081250D03*
X0277458Y0076250D03*
X0299505Y0076250D03*
X0299505Y0081250D03*
X0299505Y0086250D03*
X0299505Y0091250D03*
X0299505Y0096250D03*
X0299505Y0101250D03*
X0299505Y0106250D03*
X0299505Y0198250D03*
X0299505Y0203250D03*
X0299505Y0208250D03*
X0299505Y0213250D03*
X0299505Y0218250D03*
X0299505Y0223250D03*
X0299505Y0228250D03*
X0277458Y0228250D03*
X0277458Y0223250D03*
X0277458Y0218250D03*
X0277458Y0213250D03*
X0277458Y0208250D03*
X0277458Y0203250D03*
X0277458Y0198250D03*
X0197505Y0198250D03*
X0197505Y0203250D03*
X0197505Y0208250D03*
X0197505Y0213250D03*
X0197505Y0218250D03*
X0197505Y0223250D03*
X0197505Y0228250D03*
X0175458Y0228250D03*
X0175458Y0223250D03*
X0175458Y0218250D03*
X0175458Y0213250D03*
X0175458Y0208250D03*
X0175458Y0203250D03*
X0175458Y0198250D03*
X0095505Y0198250D03*
X0095505Y0203250D03*
X0095505Y0208250D03*
X0095505Y0213250D03*
X0095505Y0218250D03*
X0095505Y0223250D03*
X0095505Y0228250D03*
X0073458Y0228250D03*
X0073458Y0223250D03*
X0073458Y0218250D03*
X0073458Y0213250D03*
X0073458Y0208250D03*
X0073458Y0203250D03*
X0073458Y0198250D03*
X0073458Y0106250D03*
X0073458Y0101250D03*
X0073458Y0096250D03*
X0073458Y0091250D03*
X0073458Y0086250D03*
X0073458Y0081250D03*
X0073458Y0076250D03*
X0095505Y0076250D03*
X0095505Y0081250D03*
X0095505Y0086250D03*
X0095505Y0091250D03*
X0095505Y0096250D03*
X0095505Y0101250D03*
X0095505Y0106250D03*
X0175458Y0106250D03*
X0175458Y0101250D03*
X0175458Y0096250D03*
X0175458Y0091250D03*
X0175458Y0086250D03*
X0175458Y0081250D03*
X0175458Y0076250D03*
X0197505Y0076250D03*
X0197505Y0081250D03*
X0197505Y0086250D03*
X0197505Y0091250D03*
X0197505Y0096250D03*
X0197505Y0101250D03*
X0197505Y0106250D03*
X0197505Y0320250D03*
X0197505Y0325250D03*
X0197505Y0330250D03*
X0197505Y0335250D03*
X0197505Y0340250D03*
X0197505Y0345250D03*
X0197505Y0350250D03*
X0175458Y0350250D03*
X0175458Y0345250D03*
X0175458Y0340250D03*
X0175458Y0335250D03*
X0175458Y0330250D03*
X0175458Y0325250D03*
X0175458Y0320250D03*
X0095505Y0320250D03*
X0095505Y0325250D03*
X0095505Y0330250D03*
X0095505Y0335250D03*
X0095505Y0340250D03*
X0095505Y0345250D03*
X0095505Y0350250D03*
X0073458Y0350250D03*
X0073458Y0345250D03*
X0073458Y0340250D03*
X0073458Y0335250D03*
X0073458Y0330250D03*
X0073458Y0325250D03*
X0073458Y0320250D03*
X0277458Y0320250D03*
X0277458Y0325250D03*
X0277458Y0330250D03*
X0277458Y0335250D03*
X0277458Y0340250D03*
X0277458Y0345250D03*
X0277458Y0350250D03*
X0299505Y0350250D03*
X0299505Y0345250D03*
X0299505Y0340250D03*
X0299505Y0335250D03*
X0299505Y0330250D03*
X0299505Y0325250D03*
X0299505Y0320250D03*
D19*
X0273127Y0359892D03*
X0297340Y0384104D03*
X0195340Y0384104D03*
X0171127Y0359892D03*
X0093340Y0384104D03*
X0069127Y0359892D03*
X0093340Y0262104D03*
X0069127Y0237892D03*
X0093340Y0140104D03*
X0069127Y0115892D03*
X0171127Y0115892D03*
X0195340Y0140104D03*
X0273127Y0115892D03*
X0297340Y0140104D03*
X0273127Y0237892D03*
X0297340Y0262104D03*
X0195340Y0262104D03*
X0171127Y0237892D03*
D20*
X0182544Y0242010D03*
X0182544Y0249490D03*
X0190812Y0245750D03*
X0284544Y0242010D03*
X0284544Y0249490D03*
X0292812Y0245750D03*
X0284544Y0364010D03*
X0284544Y0371490D03*
X0292812Y0367750D03*
X0190812Y0367750D03*
X0182544Y0364010D03*
X0182544Y0371490D03*
X0088812Y0367750D03*
X0080544Y0364010D03*
X0080544Y0371490D03*
X0080544Y0249490D03*
X0080544Y0242010D03*
X0088812Y0245750D03*
X0080544Y0127490D03*
X0080544Y0120010D03*
X0088812Y0123750D03*
X0182544Y0120010D03*
X0182544Y0127490D03*
X0190812Y0123750D03*
X0284544Y0120010D03*
X0284544Y0127490D03*
X0292812Y0123750D03*
D21*
X0311481Y0401000D03*
X0061481Y0401000D03*
D22*
X0057916Y0020500D02*
X0057918Y0020619D01*
X0057924Y0020738D01*
X0057934Y0020857D01*
X0057948Y0020975D01*
X0057966Y0021093D01*
X0057987Y0021210D01*
X0058013Y0021326D01*
X0058043Y0021442D01*
X0058076Y0021556D01*
X0058113Y0021669D01*
X0058154Y0021781D01*
X0058199Y0021892D01*
X0058247Y0022001D01*
X0058299Y0022108D01*
X0058355Y0022213D01*
X0058414Y0022317D01*
X0058476Y0022418D01*
X0058542Y0022518D01*
X0058611Y0022615D01*
X0058683Y0022709D01*
X0058759Y0022802D01*
X0058837Y0022891D01*
X0058918Y0022978D01*
X0059003Y0023063D01*
X0059090Y0023144D01*
X0059179Y0023222D01*
X0059272Y0023298D01*
X0059366Y0023370D01*
X0059463Y0023439D01*
X0059563Y0023505D01*
X0059664Y0023567D01*
X0059768Y0023626D01*
X0059873Y0023682D01*
X0059980Y0023734D01*
X0060089Y0023782D01*
X0060200Y0023827D01*
X0060312Y0023868D01*
X0060425Y0023905D01*
X0060539Y0023938D01*
X0060655Y0023968D01*
X0060771Y0023994D01*
X0060888Y0024015D01*
X0061006Y0024033D01*
X0061124Y0024047D01*
X0061243Y0024057D01*
X0061362Y0024063D01*
X0061481Y0024065D01*
X0061600Y0024063D01*
X0061719Y0024057D01*
X0061838Y0024047D01*
X0061956Y0024033D01*
X0062074Y0024015D01*
X0062191Y0023994D01*
X0062307Y0023968D01*
X0062423Y0023938D01*
X0062537Y0023905D01*
X0062650Y0023868D01*
X0062762Y0023827D01*
X0062873Y0023782D01*
X0062982Y0023734D01*
X0063089Y0023682D01*
X0063194Y0023626D01*
X0063298Y0023567D01*
X0063399Y0023505D01*
X0063499Y0023439D01*
X0063596Y0023370D01*
X0063690Y0023298D01*
X0063783Y0023222D01*
X0063872Y0023144D01*
X0063959Y0023063D01*
X0064044Y0022978D01*
X0064125Y0022891D01*
X0064203Y0022802D01*
X0064279Y0022709D01*
X0064351Y0022615D01*
X0064420Y0022518D01*
X0064486Y0022418D01*
X0064548Y0022317D01*
X0064607Y0022213D01*
X0064663Y0022108D01*
X0064715Y0022001D01*
X0064763Y0021892D01*
X0064808Y0021781D01*
X0064849Y0021669D01*
X0064886Y0021556D01*
X0064919Y0021442D01*
X0064949Y0021326D01*
X0064975Y0021210D01*
X0064996Y0021093D01*
X0065014Y0020975D01*
X0065028Y0020857D01*
X0065038Y0020738D01*
X0065044Y0020619D01*
X0065046Y0020500D01*
X0065044Y0020381D01*
X0065038Y0020262D01*
X0065028Y0020143D01*
X0065014Y0020025D01*
X0064996Y0019907D01*
X0064975Y0019790D01*
X0064949Y0019674D01*
X0064919Y0019558D01*
X0064886Y0019444D01*
X0064849Y0019331D01*
X0064808Y0019219D01*
X0064763Y0019108D01*
X0064715Y0018999D01*
X0064663Y0018892D01*
X0064607Y0018787D01*
X0064548Y0018683D01*
X0064486Y0018582D01*
X0064420Y0018482D01*
X0064351Y0018385D01*
X0064279Y0018291D01*
X0064203Y0018198D01*
X0064125Y0018109D01*
X0064044Y0018022D01*
X0063959Y0017937D01*
X0063872Y0017856D01*
X0063783Y0017778D01*
X0063690Y0017702D01*
X0063596Y0017630D01*
X0063499Y0017561D01*
X0063399Y0017495D01*
X0063298Y0017433D01*
X0063194Y0017374D01*
X0063089Y0017318D01*
X0062982Y0017266D01*
X0062873Y0017218D01*
X0062762Y0017173D01*
X0062650Y0017132D01*
X0062537Y0017095D01*
X0062423Y0017062D01*
X0062307Y0017032D01*
X0062191Y0017006D01*
X0062074Y0016985D01*
X0061956Y0016967D01*
X0061838Y0016953D01*
X0061719Y0016943D01*
X0061600Y0016937D01*
X0061481Y0016935D01*
X0061362Y0016937D01*
X0061243Y0016943D01*
X0061124Y0016953D01*
X0061006Y0016967D01*
X0060888Y0016985D01*
X0060771Y0017006D01*
X0060655Y0017032D01*
X0060539Y0017062D01*
X0060425Y0017095D01*
X0060312Y0017132D01*
X0060200Y0017173D01*
X0060089Y0017218D01*
X0059980Y0017266D01*
X0059873Y0017318D01*
X0059768Y0017374D01*
X0059664Y0017433D01*
X0059563Y0017495D01*
X0059463Y0017561D01*
X0059366Y0017630D01*
X0059272Y0017702D01*
X0059179Y0017778D01*
X0059090Y0017856D01*
X0059003Y0017937D01*
X0058918Y0018022D01*
X0058837Y0018109D01*
X0058759Y0018198D01*
X0058683Y0018291D01*
X0058611Y0018385D01*
X0058542Y0018482D01*
X0058476Y0018582D01*
X0058414Y0018683D01*
X0058355Y0018787D01*
X0058299Y0018892D01*
X0058247Y0018999D01*
X0058199Y0019108D01*
X0058154Y0019219D01*
X0058113Y0019331D01*
X0058076Y0019444D01*
X0058043Y0019558D01*
X0058013Y0019674D01*
X0057987Y0019790D01*
X0057966Y0019907D01*
X0057948Y0020025D01*
X0057934Y0020143D01*
X0057924Y0020262D01*
X0057918Y0020381D01*
X0057916Y0020500D01*
D23*
X0061481Y0020500D03*
M02*
