G75*
%MOIN*%
%OFA0B0*%
%FSLAX25Y25*%
%IPPOS*%
%LPD*%
%AMOC8*
5,1,8,0,0,1.08239X$1,22.5*
%
%ADD10C,0.13800*%
%ADD11R,0.03300X0.05800*%
%ADD12C,0.00500*%
%ADD13C,0.08200*%
%ADD14C,0.03300*%
%ADD15R,0.07493X0.04146*%
%ADD16C,0.04808*%
%ADD17C,0.01990*%
%ADD18R,0.10643X0.13398*%
%ADD19C,0.03950*%
%ADD20C,0.04737*%
%ADD21C,0.05000*%
%ADD22C,0.06706*%
D10*
X0044481Y0138750D03*
X0124481Y0138750D03*
X0146481Y0138750D03*
X0226481Y0138750D03*
X0248481Y0138750D03*
X0328481Y0138750D03*
X0328481Y0260750D03*
X0248481Y0260750D03*
X0226481Y0260750D03*
X0146481Y0260750D03*
X0124481Y0260750D03*
X0044481Y0260750D03*
X0044481Y0382750D03*
X0124481Y0382750D03*
X0146481Y0382750D03*
X0226481Y0382750D03*
X0248481Y0382750D03*
X0328481Y0382750D03*
D11*
X0319981Y0305250D03*
X0315981Y0305250D03*
X0292481Y0301250D03*
X0288481Y0301250D03*
X0284481Y0301250D03*
X0251081Y0353250D03*
X0247881Y0353250D03*
X0247981Y0367750D03*
X0251981Y0367750D03*
X0217981Y0305250D03*
X0213981Y0305250D03*
X0190481Y0301250D03*
X0186481Y0301250D03*
X0182481Y0301250D03*
X0149081Y0353250D03*
X0145881Y0353250D03*
X0145981Y0367750D03*
X0149981Y0367750D03*
X0115981Y0305250D03*
X0111981Y0305250D03*
X0088481Y0301250D03*
X0084481Y0301250D03*
X0080481Y0301250D03*
X0047081Y0353250D03*
X0043881Y0353250D03*
X0043981Y0367750D03*
X0047981Y0367750D03*
X0047981Y0245750D03*
X0043981Y0245750D03*
X0043881Y0231250D03*
X0047081Y0231250D03*
X0080481Y0179250D03*
X0084481Y0179250D03*
X0088481Y0179250D03*
X0111981Y0183250D03*
X0115981Y0183250D03*
X0145881Y0231250D03*
X0149081Y0231250D03*
X0149981Y0245750D03*
X0145981Y0245750D03*
X0182481Y0179250D03*
X0186481Y0179250D03*
X0190481Y0179250D03*
X0213981Y0183250D03*
X0217981Y0183250D03*
X0247881Y0231250D03*
X0251081Y0231250D03*
X0251981Y0245750D03*
X0247981Y0245750D03*
X0284481Y0179250D03*
X0288481Y0179250D03*
X0292481Y0179250D03*
X0315981Y0183250D03*
X0319981Y0183250D03*
X0251981Y0123750D03*
X0247981Y0123750D03*
X0247881Y0109250D03*
X0251081Y0109250D03*
X0217981Y0061250D03*
X0213981Y0061250D03*
X0190481Y0057250D03*
X0186481Y0057250D03*
X0182481Y0057250D03*
X0149081Y0109250D03*
X0145881Y0109250D03*
X0145981Y0123750D03*
X0149981Y0123750D03*
X0115981Y0061250D03*
X0111981Y0061250D03*
X0088481Y0057250D03*
X0084481Y0057250D03*
X0080481Y0057250D03*
X0047081Y0109250D03*
X0043881Y0109250D03*
X0043981Y0123750D03*
X0047981Y0123750D03*
X0284481Y0057250D03*
X0288481Y0057250D03*
X0292481Y0057250D03*
X0315981Y0061250D03*
X0319981Y0061250D03*
D12*
X0318731Y0061153D02*
X0317231Y0061153D01*
X0317231Y0060750D02*
X0318731Y0060750D01*
X0318731Y0061750D01*
X0317231Y0061750D01*
X0317231Y0060750D01*
X0317231Y0061652D02*
X0318731Y0061652D01*
X0291231Y0057750D02*
X0291231Y0056750D01*
X0285731Y0056750D01*
X0285731Y0057750D01*
X0291231Y0057750D01*
X0291231Y0057664D02*
X0285731Y0057664D01*
X0285731Y0057165D02*
X0291231Y0057165D01*
X0250731Y0123250D02*
X0250731Y0124250D01*
X0249231Y0124250D01*
X0249231Y0123250D01*
X0250731Y0123250D01*
X0250731Y0123467D02*
X0249231Y0123467D01*
X0249231Y0123966D02*
X0250731Y0123966D01*
X0285731Y0178750D02*
X0291231Y0178750D01*
X0291231Y0179750D01*
X0285731Y0179750D01*
X0285731Y0178750D01*
X0285731Y0178802D02*
X0291231Y0178802D01*
X0291231Y0179300D02*
X0285731Y0179300D01*
X0317231Y0182750D02*
X0318731Y0182750D01*
X0318731Y0183750D01*
X0317231Y0183750D01*
X0317231Y0182750D01*
X0317231Y0182790D02*
X0318731Y0182790D01*
X0318731Y0183289D02*
X0317231Y0183289D01*
X0250731Y0245250D02*
X0250731Y0246250D01*
X0249231Y0246250D01*
X0249231Y0245250D01*
X0250731Y0245250D01*
X0250731Y0245602D02*
X0249231Y0245602D01*
X0249231Y0246101D02*
X0250731Y0246101D01*
X0285731Y0300750D02*
X0291231Y0300750D01*
X0291231Y0301750D01*
X0285731Y0301750D01*
X0285731Y0300750D01*
X0285731Y0300937D02*
X0291231Y0300937D01*
X0291231Y0301436D02*
X0285731Y0301436D01*
X0317231Y0304750D02*
X0318731Y0304750D01*
X0318731Y0305750D01*
X0317231Y0305750D01*
X0317231Y0304750D01*
X0317231Y0304925D02*
X0318731Y0304925D01*
X0318731Y0305424D02*
X0317231Y0305424D01*
X0250731Y0367250D02*
X0250731Y0368250D01*
X0249231Y0368250D01*
X0249231Y0367250D01*
X0250731Y0367250D01*
X0250731Y0367738D02*
X0249231Y0367738D01*
X0249231Y0368236D02*
X0250731Y0368236D01*
X0216731Y0305750D02*
X0215231Y0305750D01*
X0215231Y0304750D01*
X0216731Y0304750D01*
X0216731Y0305750D01*
X0216731Y0305424D02*
X0215231Y0305424D01*
X0215231Y0304925D02*
X0216731Y0304925D01*
X0189231Y0301750D02*
X0189231Y0300750D01*
X0183731Y0300750D01*
X0183731Y0301750D01*
X0189231Y0301750D01*
X0189231Y0301436D02*
X0183731Y0301436D01*
X0183731Y0300937D02*
X0189231Y0300937D01*
X0148731Y0246250D02*
X0148731Y0245250D01*
X0147231Y0245250D01*
X0147231Y0246250D01*
X0148731Y0246250D01*
X0148731Y0246101D02*
X0147231Y0246101D01*
X0147231Y0245602D02*
X0148731Y0245602D01*
X0114731Y0304750D02*
X0114731Y0305750D01*
X0113231Y0305750D01*
X0113231Y0304750D01*
X0114731Y0304750D01*
X0114731Y0304925D02*
X0113231Y0304925D01*
X0113231Y0305424D02*
X0114731Y0305424D01*
X0087231Y0301750D02*
X0087231Y0300750D01*
X0081731Y0300750D01*
X0081731Y0301750D01*
X0087231Y0301750D01*
X0087231Y0301436D02*
X0081731Y0301436D01*
X0081731Y0300937D02*
X0087231Y0300937D01*
X0046731Y0246250D02*
X0046731Y0245250D01*
X0045231Y0245250D01*
X0045231Y0246250D01*
X0046731Y0246250D01*
X0046731Y0246101D02*
X0045231Y0246101D01*
X0045231Y0245602D02*
X0046731Y0245602D01*
X0081731Y0179750D02*
X0081731Y0178750D01*
X0087231Y0178750D01*
X0087231Y0179750D01*
X0081731Y0179750D01*
X0081731Y0179300D02*
X0087231Y0179300D01*
X0087231Y0178802D02*
X0081731Y0178802D01*
X0113231Y0182750D02*
X0114731Y0182750D01*
X0114731Y0183750D01*
X0113231Y0183750D01*
X0113231Y0182750D01*
X0113231Y0182790D02*
X0114731Y0182790D01*
X0114731Y0183289D02*
X0113231Y0183289D01*
X0147231Y0124250D02*
X0147231Y0123250D01*
X0148731Y0123250D01*
X0148731Y0124250D01*
X0147231Y0124250D01*
X0147231Y0123966D02*
X0148731Y0123966D01*
X0148731Y0123467D02*
X0147231Y0123467D01*
X0183731Y0178750D02*
X0189231Y0178750D01*
X0189231Y0179750D01*
X0183731Y0179750D01*
X0183731Y0178750D01*
X0183731Y0178802D02*
X0189231Y0178802D01*
X0189231Y0179300D02*
X0183731Y0179300D01*
X0215231Y0182750D02*
X0216731Y0182750D01*
X0216731Y0183750D01*
X0215231Y0183750D01*
X0215231Y0182750D01*
X0215231Y0182790D02*
X0216731Y0182790D01*
X0216731Y0183289D02*
X0215231Y0183289D01*
X0215231Y0061750D02*
X0215231Y0060750D01*
X0216731Y0060750D01*
X0216731Y0061750D01*
X0215231Y0061750D01*
X0215231Y0061652D02*
X0216731Y0061652D01*
X0216731Y0061153D02*
X0215231Y0061153D01*
X0189231Y0057750D02*
X0189231Y0056750D01*
X0183731Y0056750D01*
X0183731Y0057750D01*
X0189231Y0057750D01*
X0189231Y0057664D02*
X0183731Y0057664D01*
X0183731Y0057165D02*
X0189231Y0057165D01*
X0114731Y0060750D02*
X0114731Y0061750D01*
X0113231Y0061750D01*
X0113231Y0060750D01*
X0114731Y0060750D01*
X0114731Y0061153D02*
X0113231Y0061153D01*
X0113231Y0061652D02*
X0114731Y0061652D01*
X0087231Y0057750D02*
X0087231Y0056750D01*
X0081731Y0056750D01*
X0081731Y0057750D01*
X0087231Y0057750D01*
X0087231Y0057664D02*
X0081731Y0057664D01*
X0081731Y0057165D02*
X0087231Y0057165D01*
X0046731Y0123250D02*
X0046731Y0124250D01*
X0045231Y0124250D01*
X0045231Y0123250D01*
X0046731Y0123250D01*
X0046731Y0123467D02*
X0045231Y0123467D01*
X0045231Y0123966D02*
X0046731Y0123966D01*
X0046731Y0367250D02*
X0046731Y0368250D01*
X0045231Y0368250D01*
X0045231Y0367250D01*
X0046731Y0367250D01*
X0046731Y0367738D02*
X0045231Y0367738D01*
X0045231Y0368236D02*
X0046731Y0368236D01*
X0147231Y0368236D02*
X0148731Y0368236D01*
X0148731Y0368250D02*
X0148731Y0367250D01*
X0147231Y0367250D01*
X0147231Y0368250D01*
X0148731Y0368250D01*
X0148731Y0367738D02*
X0147231Y0367738D01*
D13*
X0049481Y0033750D03*
X0059481Y0033750D03*
X0069481Y0033750D03*
X0079481Y0033750D03*
X0089481Y0033750D03*
X0099481Y0033750D03*
X0109481Y0033750D03*
X0119481Y0033750D03*
X0151481Y0033750D03*
X0161481Y0033750D03*
X0171481Y0033750D03*
X0181481Y0033750D03*
X0191481Y0033750D03*
X0201481Y0033750D03*
X0211481Y0033750D03*
X0221481Y0033750D03*
X0253481Y0033750D03*
X0263481Y0033750D03*
X0273481Y0033750D03*
X0283481Y0033750D03*
X0293481Y0033750D03*
X0303481Y0033750D03*
X0313481Y0033750D03*
X0323481Y0033750D03*
X0323481Y0155750D03*
X0313481Y0155750D03*
X0303481Y0155750D03*
X0293481Y0155750D03*
X0283481Y0155750D03*
X0273481Y0155750D03*
X0263481Y0155750D03*
X0253481Y0155750D03*
X0221481Y0155750D03*
X0211481Y0155750D03*
X0201481Y0155750D03*
X0191481Y0155750D03*
X0181481Y0155750D03*
X0171481Y0155750D03*
X0161481Y0155750D03*
X0151481Y0155750D03*
X0119481Y0155750D03*
X0109481Y0155750D03*
X0099481Y0155750D03*
X0089481Y0155750D03*
X0079481Y0155750D03*
X0069481Y0155750D03*
X0059481Y0155750D03*
X0049481Y0155750D03*
X0049481Y0277750D03*
X0059481Y0277750D03*
X0069481Y0277750D03*
X0079481Y0277750D03*
X0089481Y0277750D03*
X0099481Y0277750D03*
X0109481Y0277750D03*
X0119481Y0277750D03*
X0151481Y0277750D03*
X0161481Y0277750D03*
X0171481Y0277750D03*
X0181481Y0277750D03*
X0191481Y0277750D03*
X0201481Y0277750D03*
X0211481Y0277750D03*
X0221481Y0277750D03*
X0253481Y0277750D03*
X0263481Y0277750D03*
X0273481Y0277750D03*
X0283481Y0277750D03*
X0293481Y0277750D03*
X0303481Y0277750D03*
X0313481Y0277750D03*
X0323481Y0277750D03*
D14*
X0334981Y0276250D03*
X0241481Y0267750D03*
X0232981Y0276250D03*
X0139481Y0267750D03*
X0130981Y0276250D03*
X0037481Y0267750D03*
X0130981Y0154250D03*
X0139481Y0145750D03*
X0232981Y0154250D03*
X0241481Y0145750D03*
X0334981Y0154250D03*
X0334981Y0032250D03*
X0232981Y0032250D03*
X0130981Y0032250D03*
X0037481Y0145750D03*
X0037481Y0389750D03*
X0139481Y0389750D03*
X0241481Y0389750D03*
D15*
X0221907Y0347961D03*
X0210096Y0340087D03*
X0221907Y0332213D03*
X0210096Y0324339D03*
X0221907Y0316465D03*
X0252996Y0324339D03*
X0264807Y0332213D03*
X0252996Y0340087D03*
X0264807Y0347961D03*
X0264807Y0316465D03*
X0252996Y0308591D03*
X0264807Y0300717D03*
X0312096Y0324339D03*
X0323907Y0332213D03*
X0312096Y0340087D03*
X0323907Y0347961D03*
X0323907Y0316465D03*
X0323907Y0225961D03*
X0312096Y0218087D03*
X0323907Y0210213D03*
X0312096Y0202339D03*
X0323907Y0194465D03*
X0264807Y0194465D03*
X0252996Y0202339D03*
X0264807Y0210213D03*
X0252996Y0218087D03*
X0264807Y0225961D03*
X0252996Y0186591D03*
X0264807Y0178717D03*
X0221907Y0194465D03*
X0210096Y0202339D03*
X0221907Y0210213D03*
X0210096Y0218087D03*
X0221907Y0225961D03*
X0162807Y0225961D03*
X0150996Y0218087D03*
X0162807Y0210213D03*
X0150996Y0202339D03*
X0162807Y0194465D03*
X0150996Y0186591D03*
X0162807Y0178717D03*
X0119907Y0194465D03*
X0108096Y0202339D03*
X0119907Y0210213D03*
X0108096Y0218087D03*
X0119907Y0225961D03*
X0060807Y0225961D03*
X0048996Y0218087D03*
X0060807Y0210213D03*
X0048996Y0202339D03*
X0060807Y0194465D03*
X0048996Y0186591D03*
X0060807Y0178717D03*
X0060807Y0103961D03*
X0048996Y0096087D03*
X0060807Y0088213D03*
X0048996Y0080339D03*
X0060807Y0072465D03*
X0048996Y0064591D03*
X0060807Y0056717D03*
X0108096Y0080339D03*
X0119907Y0088213D03*
X0108096Y0096087D03*
X0119907Y0103961D03*
X0119907Y0072465D03*
X0150996Y0080339D03*
X0162807Y0088213D03*
X0150996Y0096087D03*
X0162807Y0103961D03*
X0162807Y0072465D03*
X0150996Y0064591D03*
X0162807Y0056717D03*
X0210096Y0080339D03*
X0221907Y0088213D03*
X0210096Y0096087D03*
X0221907Y0103961D03*
X0221907Y0072465D03*
X0252996Y0080339D03*
X0264807Y0088213D03*
X0252996Y0096087D03*
X0264807Y0103961D03*
X0264807Y0072465D03*
X0252996Y0064591D03*
X0264807Y0056717D03*
X0312096Y0080339D03*
X0323907Y0088213D03*
X0312096Y0096087D03*
X0323907Y0103961D03*
X0323907Y0072465D03*
X0162807Y0300717D03*
X0150996Y0308591D03*
X0162807Y0316465D03*
X0150996Y0324339D03*
X0162807Y0332213D03*
X0150996Y0340087D03*
X0162807Y0347961D03*
X0119907Y0347961D03*
X0108096Y0340087D03*
X0119907Y0332213D03*
X0108096Y0324339D03*
X0119907Y0316465D03*
X0060807Y0316465D03*
X0048996Y0324339D03*
X0060807Y0332213D03*
X0048996Y0340087D03*
X0060807Y0347961D03*
X0048996Y0308591D03*
X0060807Y0300717D03*
D16*
X0074481Y0306750D03*
X0074481Y0316750D03*
X0084481Y0316750D03*
X0084481Y0306750D03*
X0094481Y0306750D03*
X0094481Y0316750D03*
X0176481Y0316750D03*
X0176481Y0306750D03*
X0186481Y0306750D03*
X0186481Y0316750D03*
X0196481Y0316750D03*
X0196481Y0306750D03*
X0278481Y0306750D03*
X0278481Y0316750D03*
X0288481Y0316750D03*
X0288481Y0306750D03*
X0298481Y0306750D03*
X0298481Y0316750D03*
X0298481Y0194750D03*
X0288481Y0194750D03*
X0278481Y0194750D03*
X0278481Y0184750D03*
X0288481Y0184750D03*
X0298481Y0184750D03*
X0196481Y0184750D03*
X0186481Y0184750D03*
X0186481Y0194750D03*
X0196481Y0194750D03*
X0176481Y0194750D03*
X0176481Y0184750D03*
X0094481Y0184750D03*
X0084481Y0184750D03*
X0084481Y0194750D03*
X0094481Y0194750D03*
X0074481Y0194750D03*
X0074481Y0184750D03*
X0074481Y0072750D03*
X0074481Y0062750D03*
X0084481Y0062750D03*
X0084481Y0072750D03*
X0094481Y0072750D03*
X0094481Y0062750D03*
X0176481Y0062750D03*
X0176481Y0072750D03*
X0186481Y0072750D03*
X0186481Y0062750D03*
X0196481Y0062750D03*
X0196481Y0072750D03*
X0278481Y0072750D03*
X0278481Y0062750D03*
X0288481Y0062750D03*
X0288481Y0072750D03*
X0298481Y0072750D03*
X0298481Y0062750D03*
D17*
X0321655Y0122377D02*
X0321655Y0125123D01*
X0324401Y0125123D01*
X0324401Y0122377D01*
X0321655Y0122377D01*
X0321655Y0124267D02*
X0324401Y0124267D01*
X0328561Y0125123D02*
X0328561Y0122377D01*
X0328561Y0125123D02*
X0331307Y0125123D01*
X0331307Y0122377D01*
X0328561Y0122377D01*
X0328561Y0124267D02*
X0331307Y0124267D01*
X0226561Y0125123D02*
X0226561Y0122377D01*
X0226561Y0125123D02*
X0229307Y0125123D01*
X0229307Y0122377D01*
X0226561Y0122377D01*
X0226561Y0124267D02*
X0229307Y0124267D01*
X0219655Y0125123D02*
X0219655Y0122377D01*
X0219655Y0125123D02*
X0222401Y0125123D01*
X0222401Y0122377D01*
X0219655Y0122377D01*
X0219655Y0124267D02*
X0222401Y0124267D01*
X0124561Y0125123D02*
X0124561Y0122377D01*
X0124561Y0125123D02*
X0127307Y0125123D01*
X0127307Y0122377D01*
X0124561Y0122377D01*
X0124561Y0124267D02*
X0127307Y0124267D01*
X0117655Y0125123D02*
X0117655Y0122377D01*
X0117655Y0125123D02*
X0120401Y0125123D01*
X0120401Y0122377D01*
X0117655Y0122377D01*
X0117655Y0124267D02*
X0120401Y0124267D01*
X0117655Y0244377D02*
X0117655Y0247123D01*
X0120401Y0247123D01*
X0120401Y0244377D01*
X0117655Y0244377D01*
X0117655Y0246267D02*
X0120401Y0246267D01*
X0124561Y0247123D02*
X0124561Y0244377D01*
X0124561Y0247123D02*
X0127307Y0247123D01*
X0127307Y0244377D01*
X0124561Y0244377D01*
X0124561Y0246267D02*
X0127307Y0246267D01*
X0219655Y0247123D02*
X0219655Y0244377D01*
X0219655Y0247123D02*
X0222401Y0247123D01*
X0222401Y0244377D01*
X0219655Y0244377D01*
X0219655Y0246267D02*
X0222401Y0246267D01*
X0226561Y0247123D02*
X0226561Y0244377D01*
X0226561Y0247123D02*
X0229307Y0247123D01*
X0229307Y0244377D01*
X0226561Y0244377D01*
X0226561Y0246267D02*
X0229307Y0246267D01*
X0321655Y0247123D02*
X0321655Y0244377D01*
X0321655Y0247123D02*
X0324401Y0247123D01*
X0324401Y0244377D01*
X0321655Y0244377D01*
X0321655Y0246267D02*
X0324401Y0246267D01*
X0328561Y0247123D02*
X0328561Y0244377D01*
X0328561Y0247123D02*
X0331307Y0247123D01*
X0331307Y0244377D01*
X0328561Y0244377D01*
X0328561Y0246267D02*
X0331307Y0246267D01*
X0328561Y0366377D02*
X0328561Y0369123D01*
X0331307Y0369123D01*
X0331307Y0366377D01*
X0328561Y0366377D01*
X0328561Y0368267D02*
X0331307Y0368267D01*
X0321655Y0369123D02*
X0321655Y0366377D01*
X0321655Y0369123D02*
X0324401Y0369123D01*
X0324401Y0366377D01*
X0321655Y0366377D01*
X0321655Y0368267D02*
X0324401Y0368267D01*
X0226561Y0369123D02*
X0226561Y0366377D01*
X0226561Y0369123D02*
X0229307Y0369123D01*
X0229307Y0366377D01*
X0226561Y0366377D01*
X0226561Y0368267D02*
X0229307Y0368267D01*
X0219655Y0369123D02*
X0219655Y0366377D01*
X0219655Y0369123D02*
X0222401Y0369123D01*
X0222401Y0366377D01*
X0219655Y0366377D01*
X0219655Y0368267D02*
X0222401Y0368267D01*
X0124561Y0369123D02*
X0124561Y0366377D01*
X0124561Y0369123D02*
X0127307Y0369123D01*
X0127307Y0366377D01*
X0124561Y0366377D01*
X0124561Y0368267D02*
X0127307Y0368267D01*
X0117655Y0369123D02*
X0117655Y0366377D01*
X0117655Y0369123D02*
X0120401Y0369123D01*
X0120401Y0366377D01*
X0117655Y0366377D01*
X0117655Y0368267D02*
X0120401Y0368267D01*
D18*
X0084481Y0353002D03*
X0084481Y0384498D03*
X0186481Y0384498D03*
X0186481Y0353002D03*
X0186481Y0262498D03*
X0186481Y0231002D03*
X0186481Y0140498D03*
X0186481Y0109002D03*
X0084481Y0109002D03*
X0084481Y0140498D03*
X0084481Y0231002D03*
X0084481Y0262498D03*
X0288481Y0262498D03*
X0288481Y0231002D03*
X0288481Y0140498D03*
X0288481Y0109002D03*
X0288481Y0353002D03*
X0288481Y0384498D03*
D19*
X0297340Y0384104D03*
X0273127Y0359892D03*
X0195340Y0384104D03*
X0171127Y0359892D03*
X0093340Y0384104D03*
X0069127Y0359892D03*
X0093340Y0262104D03*
X0069127Y0237892D03*
X0093340Y0140104D03*
X0069127Y0115892D03*
X0171127Y0115892D03*
X0195340Y0140104D03*
X0273127Y0115892D03*
X0297340Y0140104D03*
X0273127Y0237892D03*
X0297340Y0262104D03*
X0195340Y0262104D03*
X0171127Y0237892D03*
D20*
X0061481Y0401000D03*
X0311481Y0401000D03*
D21*
X0057916Y0020500D02*
X0057918Y0020619D01*
X0057924Y0020738D01*
X0057934Y0020857D01*
X0057948Y0020975D01*
X0057966Y0021093D01*
X0057987Y0021210D01*
X0058013Y0021326D01*
X0058043Y0021442D01*
X0058076Y0021556D01*
X0058113Y0021669D01*
X0058154Y0021781D01*
X0058199Y0021892D01*
X0058247Y0022001D01*
X0058299Y0022108D01*
X0058355Y0022213D01*
X0058414Y0022317D01*
X0058476Y0022418D01*
X0058542Y0022518D01*
X0058611Y0022615D01*
X0058683Y0022709D01*
X0058759Y0022802D01*
X0058837Y0022891D01*
X0058918Y0022978D01*
X0059003Y0023063D01*
X0059090Y0023144D01*
X0059179Y0023222D01*
X0059272Y0023298D01*
X0059366Y0023370D01*
X0059463Y0023439D01*
X0059563Y0023505D01*
X0059664Y0023567D01*
X0059768Y0023626D01*
X0059873Y0023682D01*
X0059980Y0023734D01*
X0060089Y0023782D01*
X0060200Y0023827D01*
X0060312Y0023868D01*
X0060425Y0023905D01*
X0060539Y0023938D01*
X0060655Y0023968D01*
X0060771Y0023994D01*
X0060888Y0024015D01*
X0061006Y0024033D01*
X0061124Y0024047D01*
X0061243Y0024057D01*
X0061362Y0024063D01*
X0061481Y0024065D01*
X0061600Y0024063D01*
X0061719Y0024057D01*
X0061838Y0024047D01*
X0061956Y0024033D01*
X0062074Y0024015D01*
X0062191Y0023994D01*
X0062307Y0023968D01*
X0062423Y0023938D01*
X0062537Y0023905D01*
X0062650Y0023868D01*
X0062762Y0023827D01*
X0062873Y0023782D01*
X0062982Y0023734D01*
X0063089Y0023682D01*
X0063194Y0023626D01*
X0063298Y0023567D01*
X0063399Y0023505D01*
X0063499Y0023439D01*
X0063596Y0023370D01*
X0063690Y0023298D01*
X0063783Y0023222D01*
X0063872Y0023144D01*
X0063959Y0023063D01*
X0064044Y0022978D01*
X0064125Y0022891D01*
X0064203Y0022802D01*
X0064279Y0022709D01*
X0064351Y0022615D01*
X0064420Y0022518D01*
X0064486Y0022418D01*
X0064548Y0022317D01*
X0064607Y0022213D01*
X0064663Y0022108D01*
X0064715Y0022001D01*
X0064763Y0021892D01*
X0064808Y0021781D01*
X0064849Y0021669D01*
X0064886Y0021556D01*
X0064919Y0021442D01*
X0064949Y0021326D01*
X0064975Y0021210D01*
X0064996Y0021093D01*
X0065014Y0020975D01*
X0065028Y0020857D01*
X0065038Y0020738D01*
X0065044Y0020619D01*
X0065046Y0020500D01*
X0065044Y0020381D01*
X0065038Y0020262D01*
X0065028Y0020143D01*
X0065014Y0020025D01*
X0064996Y0019907D01*
X0064975Y0019790D01*
X0064949Y0019674D01*
X0064919Y0019558D01*
X0064886Y0019444D01*
X0064849Y0019331D01*
X0064808Y0019219D01*
X0064763Y0019108D01*
X0064715Y0018999D01*
X0064663Y0018892D01*
X0064607Y0018787D01*
X0064548Y0018683D01*
X0064486Y0018582D01*
X0064420Y0018482D01*
X0064351Y0018385D01*
X0064279Y0018291D01*
X0064203Y0018198D01*
X0064125Y0018109D01*
X0064044Y0018022D01*
X0063959Y0017937D01*
X0063872Y0017856D01*
X0063783Y0017778D01*
X0063690Y0017702D01*
X0063596Y0017630D01*
X0063499Y0017561D01*
X0063399Y0017495D01*
X0063298Y0017433D01*
X0063194Y0017374D01*
X0063089Y0017318D01*
X0062982Y0017266D01*
X0062873Y0017218D01*
X0062762Y0017173D01*
X0062650Y0017132D01*
X0062537Y0017095D01*
X0062423Y0017062D01*
X0062307Y0017032D01*
X0062191Y0017006D01*
X0062074Y0016985D01*
X0061956Y0016967D01*
X0061838Y0016953D01*
X0061719Y0016943D01*
X0061600Y0016937D01*
X0061481Y0016935D01*
X0061362Y0016937D01*
X0061243Y0016943D01*
X0061124Y0016953D01*
X0061006Y0016967D01*
X0060888Y0016985D01*
X0060771Y0017006D01*
X0060655Y0017032D01*
X0060539Y0017062D01*
X0060425Y0017095D01*
X0060312Y0017132D01*
X0060200Y0017173D01*
X0060089Y0017218D01*
X0059980Y0017266D01*
X0059873Y0017318D01*
X0059768Y0017374D01*
X0059664Y0017433D01*
X0059563Y0017495D01*
X0059463Y0017561D01*
X0059366Y0017630D01*
X0059272Y0017702D01*
X0059179Y0017778D01*
X0059090Y0017856D01*
X0059003Y0017937D01*
X0058918Y0018022D01*
X0058837Y0018109D01*
X0058759Y0018198D01*
X0058683Y0018291D01*
X0058611Y0018385D01*
X0058542Y0018482D01*
X0058476Y0018582D01*
X0058414Y0018683D01*
X0058355Y0018787D01*
X0058299Y0018892D01*
X0058247Y0018999D01*
X0058199Y0019108D01*
X0058154Y0019219D01*
X0058113Y0019331D01*
X0058076Y0019444D01*
X0058043Y0019558D01*
X0058013Y0019674D01*
X0057987Y0019790D01*
X0057966Y0019907D01*
X0057948Y0020025D01*
X0057934Y0020143D01*
X0057924Y0020262D01*
X0057918Y0020381D01*
X0057916Y0020500D01*
D22*
X0061481Y0020500D03*
M02*
