%
M48
M72
T01C0.0120
T02C0.0200
T03C0.0315
T04C0.0400
T05C0.1300
%
T01
X4948Y4125
X5948Y4875
X6248Y5225
X6948Y4625
X6448Y3975
X7448Y3975
X7948Y4375
X8448Y4875
X9348Y5725
X9798Y5275
X10648Y5425
X11248Y7275
X10648Y7575
X9098Y7625
X8948Y8625
X8448Y9175
X7948Y9125
X8448Y9875
X7448Y11075
X6098Y11925
X5448Y11075
X5698Y9625
X6698Y9625
X6848Y8625
X7998Y8025
X7948Y6775
X7348Y5725
X5448Y5675
X4148Y5475
X4098Y8375
X8448Y12375
X9598Y11675
X10198Y10425
X11248Y12375
X12848Y8375
X14298Y8375
X15898Y9625
X16898Y9625
X17048Y8625
X18148Y9125
X18648Y9175
X19148Y8625
X19298Y7625
X18198Y8025
X18148Y6775
X17548Y5725
X17148Y4625
X16448Y5225
X16148Y4875
X15648Y5675
X14348Y5475
X15148Y4125
X16648Y3975
X17648Y3975
X18148Y4375
X18648Y4875
X19548Y5725
X19998Y5275
X20848Y5425
X21448Y7275
X20848Y7575
X23048Y8375
X24498Y8375
X26098Y9625
X27098Y9625
X27248Y8625
X28348Y9125
X28848Y9175
X29348Y8625
X29498Y7625
X28398Y8025
X28348Y6775
X27748Y5725
X27348Y4625
X26648Y5225
X26348Y4875
X25848Y5675
X24548Y5475
X25348Y4125
X26848Y3975
X27848Y3975
X28348Y4375
X28848Y4875
X29748Y5725
X30198Y5275
X31048Y5425
X31648Y7275
X31048Y7575
X33248Y8375
X33248Y6375
X30598Y10425
X29998Y11675
X28848Y12375
X27848Y11075
X28848Y9875
X26498Y11925
X25848Y11075
X26848Y13825
X26848Y16175
X27348Y16825
X26648Y17425
X26348Y17075
X25848Y17875
X24548Y17675
X25348Y16325
X27748Y17925
X28348Y18975
X28398Y20225
X29348Y20825
X28848Y21375
X28348Y21325
X28848Y22075
X27848Y23275
X26498Y24125
X25848Y23275
X26098Y21825
X27098Y21825
X27248Y20825
X29498Y19825
X31048Y19775
X31648Y19475
X33248Y18575
X33248Y20575
X30598Y22625
X29998Y23875
X28848Y24575
X26848Y26025
X26848Y28375
X27348Y29025
X27848Y28375
X28348Y28775
X28848Y29275
X29748Y30125
X30198Y29675
X31048Y29825
X31648Y31675
X31048Y31975
X29498Y32025
X29348Y33025
X28848Y33575
X28348Y33525
X28848Y34275
X27848Y35475
X26498Y36325
X25848Y35475
X26098Y34025
X27098Y34025
X27248Y33025
X28398Y32425
X28348Y31175
X27748Y30125
X26648Y29625
X26348Y29275
X25848Y30075
X24548Y29875
X25348Y28525
X23048Y30775
X21448Y31675
X20848Y31975
X19298Y32025
X19148Y33025
X18648Y33575
X18148Y33525
X18648Y34275
X17648Y35475
X16298Y36325
X15648Y35475
X15898Y34025
X16898Y34025
X17048Y33025
X18198Y32425
X18148Y31175
X17548Y30125
X16448Y29625
X16148Y29275
X15648Y30075
X14348Y29875
X15148Y28525
X16648Y28375
X17148Y29025
X17648Y28375
X18148Y28775
X18648Y29275
X19548Y30125
X19998Y29675
X20848Y29825
X23048Y32775
X24498Y32775
X21448Y36775
X19798Y36075
X18648Y36775
X20398Y34825
X16648Y38225
X14298Y32775
X12848Y32775
X11248Y31675
X10648Y31975
X9098Y32025
X8948Y33025
X8448Y33575
X7948Y33525
X8448Y34275
X7448Y35475
X6098Y36325
X5448Y35475
X5698Y34025
X6698Y34025
X6848Y33025
X7998Y32425
X7948Y31175
X7348Y30125
X6248Y29625
X5948Y29275
X5448Y30075
X4148Y29875
X4948Y28525
X6448Y28375
X6948Y29025
X7448Y28375
X7948Y28775
X8448Y29275
X9348Y30125
X9798Y29675
X10648Y29825
X12848Y30775
X10198Y34825
X9598Y36075
X8448Y36775
X6448Y38225
X11248Y36775
X4098Y32775
X6448Y26025
X6098Y24125
X5448Y23275
X5698Y21825
X6698Y21825
X6848Y20825
X7948Y21325
X8448Y21375
X8448Y22075
X8948Y20825
X7998Y20225
X9098Y19825
X7948Y18975
X7348Y17925
X6948Y16825
X6448Y16175
X7448Y16175
X7948Y16575
X8448Y17075
X9348Y17925
X9798Y17475
X10648Y17625
X11248Y19475
X10648Y19775
X12848Y20575
X14298Y20575
X15898Y21825
X16898Y21825
X17048Y20825
X18148Y21325
X18648Y21375
X18648Y22075
X19148Y20825
X18198Y20225
X19298Y19825
X18148Y18975
X17548Y17925
X17148Y16825
X16648Y16175
X17648Y16175
X18148Y16575
X18648Y17075
X19548Y17925
X19998Y17475
X20848Y17625
X21448Y19475
X20848Y19775
X23048Y20575
X24498Y20575
X23048Y18575
X20398Y22625
X19798Y23875
X18648Y24575
X17648Y23275
X16298Y24125
X15648Y23275
X16648Y26025
X21448Y24575
X15648Y17875
X16148Y17075
X16448Y17425
X15148Y16325
X14348Y17675
X12848Y18575
X10198Y22625
X9598Y23875
X8448Y24575
X7448Y23275
X4098Y20575
X4148Y17675
X5448Y17875
X5948Y17075
X6248Y17425
X4948Y16325
X6448Y13825
X12848Y6375
X15648Y11075
X16298Y11925
X17648Y11075
X18648Y9875
X20398Y10425
X19798Y11675
X18648Y12375
X16648Y13825
X21448Y12375
X23048Y6375
X31648Y12375
X28348Y16575
X27848Y16175
X28848Y17075
X29748Y17925
X30198Y17475
X31048Y17625
X31648Y24575
X33248Y30775
X33248Y32775
X30598Y34825
X29998Y36075
X28848Y36775
X26848Y38225
X31648Y36775
X11248Y24575
T02
X9448Y19475
X8448Y19475
X8448Y18475
X9448Y18475
X7448Y18475
X7448Y19475
X17648Y19475
X17648Y18475
X18648Y18475
X18648Y19475
X19648Y19475
X19648Y18475
X27848Y18475
X27848Y19475
X28848Y19475
X28848Y18475
X29848Y18475
X29848Y19475
X29848Y30675
X28848Y30675
X27848Y30675
X27848Y31675
X28848Y31675
X29848Y31675
X19648Y31675
X18648Y31675
X18648Y30675
X19648Y30675
X17648Y30675
X17648Y31675
X9448Y31675
X8448Y31675
X8448Y30675
X9448Y30675
X7448Y30675
X7448Y31675
X7448Y7275
X7448Y6275
X8448Y6275
X8448Y7275
X9448Y7275
X9448Y6275
X17648Y6275
X17648Y7275
X18648Y7275
X18648Y6275
X19648Y6275
X19648Y7275
X27848Y7275
X27848Y6275
X28848Y6275
X28848Y7275
X29848Y7275
X29848Y6275
T03
X27313Y11589
X29734Y14010
X27313Y23789
X29734Y26210
X27313Y35989
X29734Y38410
X19534Y38410
X17113Y35989
X9334Y38410
X6913Y35989
X9334Y26210
X6913Y23789
X9334Y14010
X6913Y11589
X17113Y11589
X19534Y14010
X17113Y23789
X19534Y26210
T04
X4948Y3375
X5948Y3375
X6948Y3375
X7948Y3375
X8948Y3375
X9948Y3375
X10948Y3375
X11948Y3375
X15148Y3375
X16148Y3375
X17148Y3375
X18148Y3375
X19148Y3375
X20148Y3375
X21148Y3375
X22148Y3375
X25348Y3375
X26348Y3375
X27348Y3375
X28348Y3375
X29348Y3375
X30348Y3375
X31348Y3375
X32348Y3375
X32348Y15575
X31348Y15575
X30348Y15575
X29348Y15575
X28348Y15575
X27348Y15575
X26348Y15575
X25348Y15575
X22148Y15575
X21148Y15575
X20148Y15575
X19148Y15575
X18148Y15575
X17148Y15575
X16148Y15575
X15148Y15575
X11948Y15575
X10948Y15575
X9948Y15575
X8948Y15575
X7948Y15575
X6948Y15575
X5948Y15575
X4948Y15575
X4948Y27775
X5948Y27775
X6948Y27775
X7948Y27775
X8948Y27775
X9948Y27775
X10948Y27775
X11948Y27775
X15148Y27775
X16148Y27775
X17148Y27775
X18148Y27775
X19148Y27775
X20148Y27775
X21148Y27775
X22148Y27775
X25348Y27775
X26348Y27775
X27348Y27775
X28348Y27775
X29348Y27775
X30348Y27775
X31348Y27775
X32348Y27775
T05
X32848Y26075
X24848Y26075
X22648Y26075
X14648Y26075
X12448Y26075
X4448Y26075
X4448Y13875
X12448Y13875
X14648Y13875
X22648Y13875
X24848Y13875
X32848Y13875
X32848Y38275
X24848Y38275
X22648Y38275
X14648Y38275
X12448Y38275
X4448Y38275
M30
