G75*
%MOIN*%
%OFA0B0*%
%FSLAX25Y25*%
%IPPOS*%
%LPD*%
%AMOC8*
5,1,8,0,0,1.08239X$1,22.5*
%
%ADD10R,0.03937X0.04331*%
%ADD11R,0.07874X0.04724*%
%ADD12R,0.05315X0.02362*%
%ADD13R,0.04331X0.03937*%
%ADD14C,0.01181*%
%ADD15R,0.04724X0.02362*%
%ADD16R,0.03543X0.03150*%
D10*
X0061981Y0064404D03*
X0068481Y0064404D03*
X0068481Y0071096D03*
X0061981Y0071096D03*
X0061981Y0106904D03*
X0061981Y0113596D03*
X0100481Y0068096D03*
X0100481Y0061404D03*
X0106481Y0061404D03*
X0106481Y0068096D03*
X0163981Y0071096D03*
X0170481Y0071096D03*
X0170481Y0064404D03*
X0163981Y0064404D03*
X0202481Y0061404D03*
X0202481Y0068096D03*
X0208481Y0068096D03*
X0208481Y0061404D03*
X0163981Y0106904D03*
X0163981Y0113596D03*
X0202481Y0183404D03*
X0208481Y0183404D03*
X0208481Y0190096D03*
X0202481Y0190096D03*
X0170481Y0193096D03*
X0163981Y0193096D03*
X0163981Y0186404D03*
X0170481Y0186404D03*
X0163981Y0228904D03*
X0163981Y0235596D03*
X0106481Y0190096D03*
X0100481Y0190096D03*
X0100481Y0183404D03*
X0106481Y0183404D03*
X0068481Y0186404D03*
X0061981Y0186404D03*
X0061981Y0193096D03*
X0068481Y0193096D03*
X0061981Y0228904D03*
X0061981Y0235596D03*
X0061981Y0308404D03*
X0068481Y0308404D03*
X0068481Y0315096D03*
X0061981Y0315096D03*
X0061981Y0350904D03*
X0061981Y0357596D03*
X0100481Y0312096D03*
X0100481Y0305404D03*
X0106481Y0305404D03*
X0106481Y0312096D03*
X0163981Y0315096D03*
X0170481Y0315096D03*
X0170481Y0308404D03*
X0163981Y0308404D03*
X0202481Y0305404D03*
X0202481Y0312096D03*
X0208481Y0312096D03*
X0208481Y0305404D03*
X0163981Y0350904D03*
X0163981Y0357596D03*
X0265981Y0357596D03*
X0265981Y0350904D03*
X0265981Y0315096D03*
X0272481Y0315096D03*
X0272481Y0308404D03*
X0265981Y0308404D03*
X0304481Y0305404D03*
X0304481Y0312096D03*
X0310481Y0312096D03*
X0310481Y0305404D03*
X0265981Y0235596D03*
X0265981Y0228904D03*
X0265981Y0193096D03*
X0272481Y0193096D03*
X0272481Y0186404D03*
X0265981Y0186404D03*
X0304481Y0183404D03*
X0310481Y0183404D03*
X0310481Y0190096D03*
X0304481Y0190096D03*
X0265981Y0113596D03*
X0265981Y0106904D03*
X0265981Y0071096D03*
X0272481Y0071096D03*
X0272481Y0064404D03*
X0265981Y0064404D03*
X0304481Y0061404D03*
X0304481Y0068096D03*
X0310481Y0068096D03*
X0310481Y0061404D03*
D11*
X0332950Y0072726D03*
X0332950Y0094774D03*
X0244013Y0094774D03*
X0230950Y0094774D03*
X0230950Y0072726D03*
X0244013Y0072726D03*
X0142013Y0072726D03*
X0128950Y0072726D03*
X0128950Y0094774D03*
X0142013Y0094774D03*
X0142013Y0194726D03*
X0128950Y0194726D03*
X0128950Y0216774D03*
X0142013Y0216774D03*
X0230950Y0216774D03*
X0244013Y0216774D03*
X0244013Y0194726D03*
X0230950Y0194726D03*
X0332950Y0194726D03*
X0332950Y0216774D03*
X0332950Y0316726D03*
X0332950Y0338774D03*
X0244013Y0338774D03*
X0230950Y0338774D03*
X0230950Y0316726D03*
X0244013Y0316726D03*
X0142013Y0316726D03*
X0128950Y0316726D03*
X0128950Y0338774D03*
X0142013Y0338774D03*
X0040013Y0338774D03*
X0040013Y0316726D03*
X0040013Y0216774D03*
X0040013Y0194726D03*
X0040013Y0094774D03*
X0040013Y0072726D03*
D12*
X0054481Y0077844D03*
X0054481Y0081781D03*
X0054481Y0085719D03*
X0054481Y0089656D03*
X0114481Y0089656D03*
X0114481Y0085719D03*
X0114481Y0081781D03*
X0114481Y0077844D03*
X0156481Y0077844D03*
X0156481Y0081781D03*
X0156481Y0085719D03*
X0156481Y0089656D03*
X0216481Y0089656D03*
X0216481Y0085719D03*
X0216481Y0081781D03*
X0216481Y0077844D03*
X0258481Y0077844D03*
X0258481Y0081781D03*
X0258481Y0085719D03*
X0258481Y0089656D03*
X0318481Y0089656D03*
X0318481Y0085719D03*
X0318481Y0081781D03*
X0318481Y0077844D03*
X0318481Y0199844D03*
X0318481Y0203781D03*
X0318481Y0207719D03*
X0318481Y0211656D03*
X0258481Y0211656D03*
X0258481Y0207719D03*
X0258481Y0203781D03*
X0258481Y0199844D03*
X0216481Y0199844D03*
X0216481Y0203781D03*
X0216481Y0207719D03*
X0216481Y0211656D03*
X0156481Y0211656D03*
X0156481Y0207719D03*
X0156481Y0203781D03*
X0156481Y0199844D03*
X0114481Y0199844D03*
X0114481Y0203781D03*
X0114481Y0207719D03*
X0114481Y0211656D03*
X0054481Y0211656D03*
X0054481Y0207719D03*
X0054481Y0203781D03*
X0054481Y0199844D03*
X0054481Y0321844D03*
X0054481Y0325781D03*
X0054481Y0329719D03*
X0054481Y0333656D03*
X0114481Y0333656D03*
X0114481Y0329719D03*
X0114481Y0325781D03*
X0114481Y0321844D03*
X0156481Y0321844D03*
X0156481Y0325781D03*
X0156481Y0329719D03*
X0156481Y0333656D03*
X0216481Y0333656D03*
X0216481Y0329719D03*
X0216481Y0325781D03*
X0216481Y0321844D03*
X0258481Y0321844D03*
X0258481Y0325781D03*
X0258481Y0329719D03*
X0258481Y0333656D03*
X0318481Y0333656D03*
X0318481Y0329719D03*
X0318481Y0325781D03*
X0318481Y0321844D03*
D13*
X0311828Y0367750D03*
X0305135Y0367750D03*
X0271328Y0371250D03*
X0264635Y0371250D03*
X0252328Y0348750D03*
X0245635Y0348750D03*
X0209828Y0367750D03*
X0203135Y0367750D03*
X0169328Y0371250D03*
X0162635Y0371250D03*
X0150328Y0348750D03*
X0143635Y0348750D03*
X0107828Y0367750D03*
X0101135Y0367750D03*
X0067328Y0371250D03*
X0060635Y0371250D03*
X0048328Y0348750D03*
X0041635Y0348750D03*
X0060635Y0249250D03*
X0067328Y0249250D03*
X0048328Y0226750D03*
X0041635Y0226750D03*
X0101135Y0245750D03*
X0107828Y0245750D03*
X0143635Y0226750D03*
X0150328Y0226750D03*
X0162635Y0249250D03*
X0169328Y0249250D03*
X0203135Y0245750D03*
X0209828Y0245750D03*
X0245635Y0226750D03*
X0252328Y0226750D03*
X0264635Y0249250D03*
X0271328Y0249250D03*
X0305135Y0245750D03*
X0311828Y0245750D03*
X0271328Y0127250D03*
X0264635Y0127250D03*
X0252328Y0104750D03*
X0245635Y0104750D03*
X0209828Y0123750D03*
X0203135Y0123750D03*
X0169328Y0127250D03*
X0162635Y0127250D03*
X0150328Y0104750D03*
X0143635Y0104750D03*
X0107828Y0123750D03*
X0101135Y0123750D03*
X0067328Y0127250D03*
X0060635Y0127250D03*
X0048328Y0104750D03*
X0041635Y0104750D03*
X0305135Y0123750D03*
X0311828Y0123750D03*
D14*
X0251056Y0111628D02*
X0251056Y0108872D01*
X0251056Y0111628D02*
X0253812Y0111628D01*
X0253812Y0108872D01*
X0251056Y0108872D01*
X0251056Y0110052D02*
X0253812Y0110052D01*
X0253812Y0111232D02*
X0251056Y0111232D01*
X0244150Y0111628D02*
X0244150Y0108872D01*
X0244150Y0111628D02*
X0246906Y0111628D01*
X0246906Y0108872D01*
X0244150Y0108872D01*
X0244150Y0110052D02*
X0246906Y0110052D01*
X0246906Y0111232D02*
X0244150Y0111232D01*
X0149056Y0111628D02*
X0149056Y0108872D01*
X0149056Y0111628D02*
X0151812Y0111628D01*
X0151812Y0108872D01*
X0149056Y0108872D01*
X0149056Y0110052D02*
X0151812Y0110052D01*
X0151812Y0111232D02*
X0149056Y0111232D01*
X0142150Y0111628D02*
X0142150Y0108872D01*
X0142150Y0111628D02*
X0144906Y0111628D01*
X0144906Y0108872D01*
X0142150Y0108872D01*
X0142150Y0110052D02*
X0144906Y0110052D01*
X0144906Y0111232D02*
X0142150Y0111232D01*
X0047056Y0111628D02*
X0047056Y0108872D01*
X0047056Y0111628D02*
X0049812Y0111628D01*
X0049812Y0108872D01*
X0047056Y0108872D01*
X0047056Y0110052D02*
X0049812Y0110052D01*
X0049812Y0111232D02*
X0047056Y0111232D01*
X0040150Y0111628D02*
X0040150Y0108872D01*
X0040150Y0111628D02*
X0042906Y0111628D01*
X0042906Y0108872D01*
X0040150Y0108872D01*
X0040150Y0110052D02*
X0042906Y0110052D01*
X0042906Y0111232D02*
X0040150Y0111232D01*
X0040150Y0230872D02*
X0040150Y0233628D01*
X0042906Y0233628D01*
X0042906Y0230872D01*
X0040150Y0230872D01*
X0040150Y0232052D02*
X0042906Y0232052D01*
X0042906Y0233232D02*
X0040150Y0233232D01*
X0047056Y0233628D02*
X0047056Y0230872D01*
X0047056Y0233628D02*
X0049812Y0233628D01*
X0049812Y0230872D01*
X0047056Y0230872D01*
X0047056Y0232052D02*
X0049812Y0232052D01*
X0049812Y0233232D02*
X0047056Y0233232D01*
X0142150Y0233628D02*
X0142150Y0230872D01*
X0142150Y0233628D02*
X0144906Y0233628D01*
X0144906Y0230872D01*
X0142150Y0230872D01*
X0142150Y0232052D02*
X0144906Y0232052D01*
X0144906Y0233232D02*
X0142150Y0233232D01*
X0149056Y0233628D02*
X0149056Y0230872D01*
X0149056Y0233628D02*
X0151812Y0233628D01*
X0151812Y0230872D01*
X0149056Y0230872D01*
X0149056Y0232052D02*
X0151812Y0232052D01*
X0151812Y0233232D02*
X0149056Y0233232D01*
X0244150Y0233628D02*
X0244150Y0230872D01*
X0244150Y0233628D02*
X0246906Y0233628D01*
X0246906Y0230872D01*
X0244150Y0230872D01*
X0244150Y0232052D02*
X0246906Y0232052D01*
X0246906Y0233232D02*
X0244150Y0233232D01*
X0251056Y0233628D02*
X0251056Y0230872D01*
X0251056Y0233628D02*
X0253812Y0233628D01*
X0253812Y0230872D01*
X0251056Y0230872D01*
X0251056Y0232052D02*
X0253812Y0232052D01*
X0253812Y0233232D02*
X0251056Y0233232D01*
X0251056Y0352872D02*
X0251056Y0355628D01*
X0253812Y0355628D01*
X0253812Y0352872D01*
X0251056Y0352872D01*
X0251056Y0354052D02*
X0253812Y0354052D01*
X0253812Y0355232D02*
X0251056Y0355232D01*
X0244150Y0355628D02*
X0244150Y0352872D01*
X0244150Y0355628D02*
X0246906Y0355628D01*
X0246906Y0352872D01*
X0244150Y0352872D01*
X0244150Y0354052D02*
X0246906Y0354052D01*
X0246906Y0355232D02*
X0244150Y0355232D01*
X0149056Y0355628D02*
X0149056Y0352872D01*
X0149056Y0355628D02*
X0151812Y0355628D01*
X0151812Y0352872D01*
X0149056Y0352872D01*
X0149056Y0354052D02*
X0151812Y0354052D01*
X0151812Y0355232D02*
X0149056Y0355232D01*
X0142150Y0355628D02*
X0142150Y0352872D01*
X0142150Y0355628D02*
X0144906Y0355628D01*
X0144906Y0352872D01*
X0142150Y0352872D01*
X0142150Y0354052D02*
X0144906Y0354052D01*
X0144906Y0355232D02*
X0142150Y0355232D01*
X0047056Y0355628D02*
X0047056Y0352872D01*
X0047056Y0355628D02*
X0049812Y0355628D01*
X0049812Y0352872D01*
X0047056Y0352872D01*
X0047056Y0354052D02*
X0049812Y0354052D01*
X0049812Y0355232D02*
X0047056Y0355232D01*
X0040150Y0355628D02*
X0040150Y0352872D01*
X0040150Y0355628D02*
X0042906Y0355628D01*
X0042906Y0352872D01*
X0040150Y0352872D01*
X0040150Y0354052D02*
X0042906Y0354052D01*
X0042906Y0355232D02*
X0040150Y0355232D01*
D15*
X0073458Y0350250D03*
X0073458Y0345250D03*
X0073458Y0340250D03*
X0073458Y0335250D03*
X0073458Y0330250D03*
X0073458Y0325250D03*
X0073458Y0320250D03*
X0095505Y0320250D03*
X0095505Y0325250D03*
X0095505Y0330250D03*
X0095505Y0335250D03*
X0095505Y0340250D03*
X0095505Y0345250D03*
X0095505Y0350250D03*
X0175458Y0350250D03*
X0175458Y0345250D03*
X0175458Y0340250D03*
X0175458Y0335250D03*
X0175458Y0330250D03*
X0175458Y0325250D03*
X0175458Y0320250D03*
X0197505Y0320250D03*
X0197505Y0325250D03*
X0197505Y0330250D03*
X0197505Y0335250D03*
X0197505Y0340250D03*
X0197505Y0345250D03*
X0197505Y0350250D03*
X0277458Y0350250D03*
X0277458Y0345250D03*
X0277458Y0340250D03*
X0277458Y0335250D03*
X0277458Y0330250D03*
X0277458Y0325250D03*
X0277458Y0320250D03*
X0299505Y0320250D03*
X0299505Y0325250D03*
X0299505Y0330250D03*
X0299505Y0335250D03*
X0299505Y0340250D03*
X0299505Y0345250D03*
X0299505Y0350250D03*
X0299505Y0228250D03*
X0299505Y0223250D03*
X0299505Y0218250D03*
X0299505Y0213250D03*
X0299505Y0208250D03*
X0299505Y0203250D03*
X0299505Y0198250D03*
X0277458Y0198250D03*
X0277458Y0203250D03*
X0277458Y0208250D03*
X0277458Y0213250D03*
X0277458Y0218250D03*
X0277458Y0223250D03*
X0277458Y0228250D03*
X0197505Y0228250D03*
X0197505Y0223250D03*
X0197505Y0218250D03*
X0197505Y0213250D03*
X0197505Y0208250D03*
X0197505Y0203250D03*
X0197505Y0198250D03*
X0175458Y0198250D03*
X0175458Y0203250D03*
X0175458Y0208250D03*
X0175458Y0213250D03*
X0175458Y0218250D03*
X0175458Y0223250D03*
X0175458Y0228250D03*
X0095505Y0228250D03*
X0095505Y0223250D03*
X0095505Y0218250D03*
X0095505Y0213250D03*
X0095505Y0208250D03*
X0095505Y0203250D03*
X0095505Y0198250D03*
X0073458Y0198250D03*
X0073458Y0203250D03*
X0073458Y0208250D03*
X0073458Y0213250D03*
X0073458Y0218250D03*
X0073458Y0223250D03*
X0073458Y0228250D03*
X0073458Y0106250D03*
X0073458Y0101250D03*
X0073458Y0096250D03*
X0073458Y0091250D03*
X0073458Y0086250D03*
X0073458Y0081250D03*
X0073458Y0076250D03*
X0095505Y0076250D03*
X0095505Y0081250D03*
X0095505Y0086250D03*
X0095505Y0091250D03*
X0095505Y0096250D03*
X0095505Y0101250D03*
X0095505Y0106250D03*
X0175458Y0106250D03*
X0175458Y0101250D03*
X0175458Y0096250D03*
X0175458Y0091250D03*
X0175458Y0086250D03*
X0175458Y0081250D03*
X0175458Y0076250D03*
X0197505Y0076250D03*
X0197505Y0081250D03*
X0197505Y0086250D03*
X0197505Y0091250D03*
X0197505Y0096250D03*
X0197505Y0101250D03*
X0197505Y0106250D03*
X0277458Y0106250D03*
X0277458Y0101250D03*
X0277458Y0096250D03*
X0277458Y0091250D03*
X0277458Y0086250D03*
X0277458Y0081250D03*
X0277458Y0076250D03*
X0299505Y0076250D03*
X0299505Y0081250D03*
X0299505Y0086250D03*
X0299505Y0091250D03*
X0299505Y0096250D03*
X0299505Y0101250D03*
X0299505Y0106250D03*
D16*
X0292812Y0123750D03*
X0284544Y0120010D03*
X0284544Y0127490D03*
X0190812Y0123750D03*
X0182544Y0120010D03*
X0182544Y0127490D03*
X0088812Y0123750D03*
X0080544Y0120010D03*
X0080544Y0127490D03*
X0080544Y0242010D03*
X0080544Y0249490D03*
X0088812Y0245750D03*
X0182544Y0242010D03*
X0182544Y0249490D03*
X0190812Y0245750D03*
X0284544Y0242010D03*
X0284544Y0249490D03*
X0292812Y0245750D03*
X0284544Y0364010D03*
X0284544Y0371490D03*
X0292812Y0367750D03*
X0190812Y0367750D03*
X0182544Y0364010D03*
X0182544Y0371490D03*
X0088812Y0367750D03*
X0080544Y0364010D03*
X0080544Y0371490D03*
M02*
