G75*
%MOIN*%
%OFA0B0*%
%FSLAX25Y25*%
%IPPOS*%
%LPD*%
%AMOC8*
5,1,8,0,0,1.08239X$1,22.5*
%
%ADD10R,0.06693X0.03346*%
%ADD11C,0.01181*%
%ADD12R,0.09843X0.12598*%
D10*
X0117666Y0072465D03*
X0129477Y0080339D03*
X0117666Y0088213D03*
X0129477Y0096087D03*
X0117666Y0103961D03*
X0176766Y0103961D03*
X0188577Y0096087D03*
X0176766Y0088213D03*
X0188577Y0080339D03*
X0176766Y0072465D03*
X0188577Y0064591D03*
X0176766Y0056717D03*
X0219666Y0072465D03*
X0231477Y0080339D03*
X0219666Y0088213D03*
X0231477Y0096087D03*
X0219666Y0103961D03*
X0278766Y0103961D03*
X0290577Y0096087D03*
X0278766Y0088213D03*
X0290577Y0080339D03*
X0278766Y0072465D03*
X0290577Y0064591D03*
X0278766Y0056717D03*
X0321666Y0072465D03*
X0333477Y0080339D03*
X0321666Y0088213D03*
X0333477Y0096087D03*
X0321666Y0103961D03*
X0380766Y0103961D03*
X0392577Y0096087D03*
X0380766Y0088213D03*
X0392577Y0080339D03*
X0380766Y0072465D03*
X0392577Y0064591D03*
X0380766Y0056717D03*
X0380766Y0178717D03*
X0392577Y0186591D03*
X0380766Y0194465D03*
X0392577Y0202339D03*
X0380766Y0210213D03*
X0392577Y0218087D03*
X0380766Y0225961D03*
X0333477Y0218087D03*
X0321666Y0210213D03*
X0333477Y0202339D03*
X0321666Y0194465D03*
X0321666Y0225961D03*
X0290577Y0218087D03*
X0278766Y0210213D03*
X0290577Y0202339D03*
X0278766Y0194465D03*
X0290577Y0186591D03*
X0278766Y0178717D03*
X0278766Y0225961D03*
X0231477Y0218087D03*
X0219666Y0210213D03*
X0231477Y0202339D03*
X0219666Y0194465D03*
X0219666Y0225961D03*
X0188577Y0218087D03*
X0176766Y0210213D03*
X0188577Y0202339D03*
X0176766Y0194465D03*
X0188577Y0186591D03*
X0176766Y0178717D03*
X0176766Y0225961D03*
X0129477Y0218087D03*
X0117666Y0210213D03*
X0129477Y0202339D03*
X0117666Y0194465D03*
X0117666Y0225961D03*
X0176766Y0300717D03*
X0188577Y0308591D03*
X0176766Y0316465D03*
X0188577Y0324339D03*
X0176766Y0332213D03*
X0188577Y0340087D03*
X0176766Y0347961D03*
X0219666Y0347961D03*
X0231477Y0340087D03*
X0219666Y0332213D03*
X0231477Y0324339D03*
X0219666Y0316465D03*
X0278766Y0316465D03*
X0290577Y0324339D03*
X0278766Y0332213D03*
X0290577Y0340087D03*
X0278766Y0347961D03*
X0290577Y0308591D03*
X0278766Y0300717D03*
X0321666Y0316465D03*
X0333477Y0324339D03*
X0321666Y0332213D03*
X0333477Y0340087D03*
X0321666Y0347961D03*
X0380766Y0347961D03*
X0392577Y0340087D03*
X0380766Y0332213D03*
X0392577Y0324339D03*
X0380766Y0316465D03*
X0392577Y0308591D03*
X0380766Y0300717D03*
X0129477Y0324339D03*
X0117666Y0332213D03*
X0129477Y0340087D03*
X0117666Y0347961D03*
X0117666Y0316465D03*
D11*
X0117167Y0366372D02*
X0117167Y0369128D01*
X0119923Y0369128D01*
X0119923Y0366372D01*
X0117167Y0366372D01*
X0117167Y0367552D02*
X0119923Y0367552D01*
X0119923Y0368732D02*
X0117167Y0368732D01*
X0110262Y0369128D02*
X0110262Y0366372D01*
X0110262Y0369128D02*
X0113018Y0369128D01*
X0113018Y0366372D01*
X0110262Y0366372D01*
X0110262Y0367552D02*
X0113018Y0367552D01*
X0113018Y0368732D02*
X0110262Y0368732D01*
X0212262Y0369128D02*
X0212262Y0366372D01*
X0212262Y0369128D02*
X0215018Y0369128D01*
X0215018Y0366372D01*
X0212262Y0366372D01*
X0212262Y0367552D02*
X0215018Y0367552D01*
X0215018Y0368732D02*
X0212262Y0368732D01*
X0219167Y0369128D02*
X0219167Y0366372D01*
X0219167Y0369128D02*
X0221923Y0369128D01*
X0221923Y0366372D01*
X0219167Y0366372D01*
X0219167Y0367552D02*
X0221923Y0367552D01*
X0221923Y0368732D02*
X0219167Y0368732D01*
X0314262Y0369128D02*
X0314262Y0366372D01*
X0314262Y0369128D02*
X0317018Y0369128D01*
X0317018Y0366372D01*
X0314262Y0366372D01*
X0314262Y0367552D02*
X0317018Y0367552D01*
X0317018Y0368732D02*
X0314262Y0368732D01*
X0321167Y0369128D02*
X0321167Y0366372D01*
X0321167Y0369128D02*
X0323923Y0369128D01*
X0323923Y0366372D01*
X0321167Y0366372D01*
X0321167Y0367552D02*
X0323923Y0367552D01*
X0323923Y0368732D02*
X0321167Y0368732D01*
X0321167Y0247128D02*
X0321167Y0244372D01*
X0321167Y0247128D02*
X0323923Y0247128D01*
X0323923Y0244372D01*
X0321167Y0244372D01*
X0321167Y0245552D02*
X0323923Y0245552D01*
X0323923Y0246732D02*
X0321167Y0246732D01*
X0314262Y0247128D02*
X0314262Y0244372D01*
X0314262Y0247128D02*
X0317018Y0247128D01*
X0317018Y0244372D01*
X0314262Y0244372D01*
X0314262Y0245552D02*
X0317018Y0245552D01*
X0317018Y0246732D02*
X0314262Y0246732D01*
X0219167Y0247128D02*
X0219167Y0244372D01*
X0219167Y0247128D02*
X0221923Y0247128D01*
X0221923Y0244372D01*
X0219167Y0244372D01*
X0219167Y0245552D02*
X0221923Y0245552D01*
X0221923Y0246732D02*
X0219167Y0246732D01*
X0212262Y0247128D02*
X0212262Y0244372D01*
X0212262Y0247128D02*
X0215018Y0247128D01*
X0215018Y0244372D01*
X0212262Y0244372D01*
X0212262Y0245552D02*
X0215018Y0245552D01*
X0215018Y0246732D02*
X0212262Y0246732D01*
X0117167Y0247128D02*
X0117167Y0244372D01*
X0117167Y0247128D02*
X0119923Y0247128D01*
X0119923Y0244372D01*
X0117167Y0244372D01*
X0117167Y0245552D02*
X0119923Y0245552D01*
X0119923Y0246732D02*
X0117167Y0246732D01*
X0110262Y0247128D02*
X0110262Y0244372D01*
X0110262Y0247128D02*
X0113018Y0247128D01*
X0113018Y0244372D01*
X0110262Y0244372D01*
X0110262Y0245552D02*
X0113018Y0245552D01*
X0113018Y0246732D02*
X0110262Y0246732D01*
X0110262Y0125128D02*
X0110262Y0122372D01*
X0110262Y0125128D02*
X0113018Y0125128D01*
X0113018Y0122372D01*
X0110262Y0122372D01*
X0110262Y0123552D02*
X0113018Y0123552D01*
X0113018Y0124732D02*
X0110262Y0124732D01*
X0117167Y0125128D02*
X0117167Y0122372D01*
X0117167Y0125128D02*
X0119923Y0125128D01*
X0119923Y0122372D01*
X0117167Y0122372D01*
X0117167Y0123552D02*
X0119923Y0123552D01*
X0119923Y0124732D02*
X0117167Y0124732D01*
X0212262Y0125128D02*
X0212262Y0122372D01*
X0212262Y0125128D02*
X0215018Y0125128D01*
X0215018Y0122372D01*
X0212262Y0122372D01*
X0212262Y0123552D02*
X0215018Y0123552D01*
X0215018Y0124732D02*
X0212262Y0124732D01*
X0219167Y0125128D02*
X0219167Y0122372D01*
X0219167Y0125128D02*
X0221923Y0125128D01*
X0221923Y0122372D01*
X0219167Y0122372D01*
X0219167Y0123552D02*
X0221923Y0123552D01*
X0221923Y0124732D02*
X0219167Y0124732D01*
X0314262Y0125128D02*
X0314262Y0122372D01*
X0314262Y0125128D02*
X0317018Y0125128D01*
X0317018Y0122372D01*
X0314262Y0122372D01*
X0314262Y0123552D02*
X0317018Y0123552D01*
X0317018Y0124732D02*
X0314262Y0124732D01*
X0321167Y0125128D02*
X0321167Y0122372D01*
X0321167Y0125128D02*
X0323923Y0125128D01*
X0323923Y0122372D01*
X0321167Y0122372D01*
X0321167Y0123552D02*
X0323923Y0123552D01*
X0323923Y0124732D02*
X0321167Y0124732D01*
D12*
X0357092Y0109002D03*
X0357092Y0140498D03*
X0357092Y0231002D03*
X0357092Y0262498D03*
X0357092Y0353002D03*
X0357092Y0384498D03*
X0255092Y0384498D03*
X0255092Y0353002D03*
X0255092Y0262498D03*
X0255092Y0231002D03*
X0255092Y0140498D03*
X0255092Y0109002D03*
X0153092Y0109002D03*
X0153092Y0140498D03*
X0153092Y0231002D03*
X0153092Y0262498D03*
X0153092Y0353002D03*
X0153092Y0384498D03*
M02*
